<!-- icon666.com - MILLIONS vector ICONS FREE --><svg id="gradient" viewBox="0 0 64 64" xmlns="http://www.w3.org/2000/svg" xmlns:xlink="http://www.w3.org/1999/xlink"><linearGradient id="linear-gradient" gradientUnits="userSpaceOnUse" x1="3.77" x2="60.23" y1="32" y2="32"><stop offset="0" stop-color="#00c0ff"></stop><stop offset="1" stop-color="#5558ff"></stop></linearGradient><path d="m58.4751 27.75732-22.23242-22.23242a6.00609 6.00609 0 0 0 -8.48536 0l-22.23242 22.23242a6.007 6.007 0 0 0 0 8.48536l22.23242 22.23242a6.00609 6.00609 0 0 0 8.48536 0l22.23242-22.23242a6.007 6.007 0 0 0 0-8.48536zm-1.4141 7.07129-22.23239 22.23239a4.09726 4.09726 0 0 1 -5.65722 0l-22.23239-22.23239a4.02011 4.02011 0 0 1 0-5.65722l22.23239-22.23239a4.00091 4.00091 0 0 1 5.65722 0l22.23239 22.23239a4.02016 4.02016 0 0 1 0 5.65722zm-25.061-16.28808a13.475 13.475 0 0 0 -13.45947 13.45947c.73961 17.85578 26.18206 17.85058 26.919-.0001a13.475 13.475 0 0 0 -13.45953-13.45937zm0 24.91894a11.47235 11.47235 0 0 1 -11.45947-11.45947c.62936-15.20257 22.2919-15.19815 22.919.00009a11.47236 11.47236 0 0 1 -11.45953 11.45938z" fill="url(#linear-gradient)"></path></svg>